<?xml version="1.0" encoding="UTF-8"?>
<svg version="1.1" xmlns="http://www.w3.org/2000/svg" width="1200" height="1200">
<path d="M0 0 C1.60136515 -0.00269823 3.20272903 -0.00626879 4.80409053 -0.01062447 C9.18990588 -0.02003473 13.57563765 -0.01709738 17.96145697 -0.01206893 C22.73865865 -0.00879138 27.51584287 -0.01709391 32.2930389 -0.02388728 C40.66117554 -0.03417979 49.02928904 -0.03703237 57.39743137 -0.03497505 C69.84167602 -0.03192311 82.28589509 -0.04025337 94.73013476 -0.0507243 C118.25076413 -0.07006237 141.77138477 -0.07569247 165.29202115 -0.07683842 C183.45800161 -0.0777577 201.62397865 -0.08187539 219.789958 -0.08823967 C225.02010204 -0.09003478 230.25024608 -0.09181441 235.48039013 -0.09358943 C237.43077414 -0.09425257 237.43077414 -0.09425257 239.42055985 -0.09492911 C275.99320011 -0.10723705 312.56583878 -0.11514208 349.13848114 -0.11424255 C350.53118666 -0.114211 351.92389219 -0.11417952 353.31659771 -0.11414814 C359.6042373 -0.11400137 365.89187688 -0.11382504 372.17951647 -0.11364037 C374.98320511 -0.11355812 377.78689376 -0.11347783 380.5905824 -0.11339774 C381.99387793 -0.11335695 383.39717346 -0.11331491 384.80046899 -0.11327162 C429.16092588 -0.11191154 473.52135081 -0.12653995 517.88179874 -0.15435219 C529.05667931 -0.16135461 540.23155991 -0.16829371 551.40644073 -0.17488098 C552.09458517 -0.17528673 552.7827296 -0.17569248 553.49172689 -0.17611052 C574.71327054 -0.18854752 595.93481157 -0.19607301 617.15635872 -0.19859695 C617.82299043 -0.19867686 618.48962213 -0.19875676 619.1764548 -0.19883908 C634.47003465 -0.20062252 649.76361434 -0.20100503 665.05719429 -0.20042574 C670.29016753 -0.20027648 675.52314077 -0.20017907 680.75611401 -0.20011711 C682.04458874 -0.2000938 683.33306348 -0.20007049 684.66058291 -0.20004648 C705.38058591 -0.19998498 726.1005619 -0.21274774 746.82055688 -0.22998164 C767.65186111 -0.24694952 788.48312589 -0.24890291 809.31443321 -0.235763 C821.68303857 -0.22838145 834.05152396 -0.23200809 846.42011657 -0.25164768 C854.69230167 -0.2636706 862.96440013 -0.26103091 871.2365813 -0.24670668 C875.94306849 -0.23896322 880.64932399 -0.23733517 885.3557946 -0.25362138 C922.39717131 -0.37321157 955.79797818 4.54392129 986.87520695 26.25726891 C987.85360538 26.93789391 988.83200382 27.61851891 989.8400507 28.31976891 C1022.24381652 52.03179532 1043.26224548 86.65084355 1049.91000652 126.13486385 C1050.98600389 133.23748206 1051.16045281 140.17933665 1051.14263248 147.35246849 C1051.14637893 148.72569481 1051.15098436 150.098919 1051.15636313 151.47213989 C1051.16848634 155.20844547 1051.16834542 158.94466081 1051.16597438 162.68098152 C1051.16556347 166.72553346 1051.17663148 170.7700575 1051.18608952 174.81459618 C1051.20264287 182.72571913 1051.20819653 190.63681226 1051.20931427 198.54795109 C1051.21026766 204.98624363 1051.21439241 211.42452641 1051.22071552 217.86281586 C1051.23831425 236.15730479 1051.2475568 254.45177033 1051.24605457 272.74626779 C1051.24593471 274.22305734 1051.24593471 274.22305734 1051.24581242 275.72968102 C1051.24568977 277.20829549 1051.24568977 277.20829549 1051.24556465 278.71678097 C1051.24475265 294.67345305 1051.26387229 310.63003053 1051.29208915 326.58667528 C1051.32090103 343.01080001 1051.33462482 359.43487874 1051.3329016 375.85902935 C1051.33224045 385.06376619 1051.33761105 394.26840391 1051.3592577 403.47311783 C1051.37757942 411.31366261 1051.38172771 419.15406338 1051.36823885 426.99462043 C1051.36176346 430.98528718 1051.36139176 434.97567856 1051.37894535 438.96631813 C1051.52496809 474.4536667 1045.55206731 506.66351251 1024.87520695 536.25726891 C1024.19458195 537.23566734 1023.51395695 538.21406578 1022.81270695 539.22211266 C999.09997246 571.62684611 964.46152108 592.67009196 924.96718693 599.29221916 C918.03351834 600.34287132 911.26947479 600.54158633 904.26680851 600.52228355 C902.95969756 600.52666482 901.65258661 600.53104609 900.30586624 600.53556013 C896.71584976 600.54736528 893.12592534 600.54705676 889.53589416 600.54462504 C885.64882571 600.54420251 881.76178777 600.55533291 877.87473392 600.56508446 C871.14805286 600.58048735 864.42139263 600.58893792 857.69469547 600.59279442 C847.94635642 600.59856756 838.198073 600.61719647 828.44975865 600.63923496 C812.6005357 600.67490246 796.75130959 600.70323443 780.90206242 600.72553062 C779.95493511 600.72686562 779.00780781 600.72820061 778.03197968 600.72957605 C771.3130557 600.73899885 764.59413136 600.74816055 757.87520695 600.75726891 C750.21391111 600.76766048 742.55261547 600.77818074 734.89132023 600.78900719 C733.94778352 600.79033793 733.00424681 600.79166867 732.03211808 600.79303974 C716.24870593 600.8155405 700.46531742 600.84576955 684.68192959 600.88139963 C674.97002193 600.9029526 665.25815107 600.91765372 655.54622084 600.9232384 C648.87898284 600.92751526 642.21177985 600.93883001 635.54456133 600.95546234 C631.71004706 600.9647807 627.87559813 600.97101453 624.04107189 600.96839905 C574.79841123 600.94156091 532.56451032 609.53338791 495.6759882 644.42523766 C464.42563158 676.02427329 451.67969095 716.20518911 451.74390507 759.97919273 C451.74178935 761.28645254 451.73967364 762.59371235 451.73749381 763.94058609 C451.73294381 766.78292055 451.7314666 769.62523338 451.73245907 772.46757126 C451.73406803 777.0953804 451.72881529 781.72316845 451.72283268 786.35097313 C451.71475526 793.07163041 451.70978814 799.79228395 451.70654202 806.51294518 C451.7010144 817.15608861 451.68408548 827.79920055 451.66520023 838.4423275 C451.65884487 842.09345049 451.65253621 845.74457357 451.64622307 849.39569664 C451.64463931 850.3079676 451.64305554 851.22023857 451.64142379 852.1601541 C451.62351987 862.5237409 451.60727802 872.8873299 451.59224796 883.25092125 C451.59087209 884.19722074 451.58949622 885.14352023 451.58807866 886.11849546 C451.5661691 901.43810893 451.55539573 916.75771412 451.54787721 932.07734048 C451.53978 947.85063978 451.51640789 963.62386891 451.47992355 979.39712811 C451.45801639 989.10068985 451.44819748 998.80410685 451.45442388 1008.50769204 C451.45762113 1015.16982377 451.44612061 1021.83183265 451.42352947 1028.49392635 C451.41098143 1032.32459118 451.40454406 1036.15498201 451.41594601 1039.98565674 C451.51047253 1075.10710953 445.30608775 1107.01557076 424.87520695 1136.25726891 C424.19458195 1137.23566734 423.51395695 1138.21406578 422.81270695 1139.22211266 C399.10068054 1171.62587848 364.48163231 1192.64430744 324.997612 1199.29206848 C317.89499379 1200.36806585 310.95313921 1200.54251477 303.78000736 1200.52469444 C302.40678104 1200.52844089 301.03355685 1200.53304632 299.66033596 1200.53842509 C295.92403038 1200.5505483 292.18781505 1200.55040737 288.45149434 1200.54803634 C284.4069424 1200.54762543 280.36241835 1200.55869344 276.31787968 1200.56815147 C268.40675672 1200.58470483 260.49566359 1200.59025849 252.58452476 1200.59137623 C246.14623222 1200.59232962 239.70794944 1200.59645437 233.26966 1200.60277748 C214.97517107 1200.6203762 196.68070552 1200.62961876 178.38620806 1200.62811653 C177.4016817 1200.62803662 176.41715534 1200.62795671 175.40279484 1200.62787437 C173.92418036 1200.62775173 173.92418036 1200.62775173 172.41569488 1200.62762661 C156.4590228 1200.62681461 140.50244532 1200.64593424 124.54580057 1200.67415111 C108.12167584 1200.70296299 91.69759711 1200.71668678 75.2734465 1200.71496356 C66.06870966 1200.7143024 56.86407194 1200.71967301 47.65935802 1200.74131966 C39.81881324 1200.75964138 31.97841247 1200.76378967 24.13785542 1200.75030081 C20.14718867 1200.74382541 16.15679729 1200.74345372 12.16615772 1200.76100731 C-23.32119085 1200.90703005 -55.53103666 1194.93412927 -85.12479305 1174.25726891 C-86.59239071 1173.23633141 -86.59239071 1173.23633141 -88.0896368 1172.19476891 C-120.49395339 1148.48233946 -141.39591377 1113.94858903 -148.16022742 1074.50652355 C-149.33993344 1066.71025504 -149.40514159 1058.99384847 -149.38206196 1051.13247585 C-149.38476019 1049.5311107 -149.38833075 1047.92974683 -149.39268643 1046.32838532 C-149.40209669 1041.94256997 -149.39915934 1037.5568382 -149.39413088 1033.17101888 C-149.39085333 1028.39381721 -149.39915587 1023.61663299 -149.40594923 1018.83943695 C-149.41624174 1010.47130032 -149.41909433 1002.10318682 -149.41703701 993.73504448 C-149.41398507 981.29079984 -149.42231533 968.84658076 -149.43278626 956.40234109 C-149.45212433 932.88171173 -149.45775442 909.36109108 -149.45890038 885.84045471 C-149.45981966 867.67447424 -149.46393735 849.5084972 -149.47030163 831.34251785 C-149.47209674 826.11237381 -149.47387636 820.88222977 -149.47565138 815.65208572 C-149.47609348 814.35182971 -149.47653558 813.0515737 -149.47699107 811.711916 C-149.48929901 775.13927575 -149.49720404 738.56663707 -149.49630451 701.99399471 C-149.49627296 700.60128919 -149.49624148 699.20858367 -149.4962101 697.81587814 C-149.49606333 691.52823856 -149.495887 685.24059897 -149.49570233 678.95295939 C-149.49562008 676.14927074 -149.49553979 673.3455821 -149.4954597 670.54189345 C-149.49541891 669.13859792 -149.49537687 667.73530239 -149.49533358 666.33200686 C-149.4939735 621.97154998 -149.5086019 577.61112504 -149.53641415 533.25067711 C-149.54341657 522.07579654 -149.55035566 510.90091594 -149.55694294 499.72603512 C-149.55734869 499.03789069 -149.55775444 498.34974626 -149.55817248 497.64074897 C-149.57060947 476.41920531 -149.57813496 455.19766428 -149.58065891 433.97611713 C-149.58073881 433.30948543 -149.58081872 432.64285372 -149.58090104 431.95602105 C-149.58268448 416.6624412 -149.58306699 401.36886151 -149.5824877 386.07528156 C-149.58233844 380.84230832 -149.58224103 375.60933509 -149.58217907 370.37636185 C-149.58215576 369.08788711 -149.58213245 367.79941237 -149.58210844 366.47189294 C-149.58204693 345.75188994 -149.5948097 325.03191395 -149.6120436 304.31191897 C-149.62901148 283.48061475 -149.63096487 262.64934996 -149.61782496 241.81804264 C-149.61044341 229.44943728 -149.61407005 217.08095189 -149.63370964 204.71235929 C-149.64573256 196.44017419 -149.64309287 188.16807573 -149.62876864 179.89589456 C-149.62102518 175.18940737 -149.61939713 170.48315187 -149.63568334 165.77668125 C-149.75527353 128.73530454 -144.83814066 95.33449767 -123.12479305 64.25726891 C-122.44416805 63.27887047 -121.76354305 62.30047203 -121.06229305 61.29242516 C-97.34986361 28.88810857 -62.81611317 7.98614819 -23.3740477 1.22183454 C-15.57777919 0.04212851 -7.86137262 -0.02307964 0 0 Z " fill="#5065D2" transform="translate(149.12479305267334,-0.25726890563964844)"/>
<path d="M0 0 C1.17399237 -0.00445784 2.34798474 -0.00891569 3.55755264 -0.01350862 C4.84332409 -0.01332426 6.12909554 -0.01313989 7.45382977 -0.01294994 C8.83680073 -0.01625082 10.21977073 -0.01997686 11.60273951 -0.02409142 C15.40288479 -0.03409457 19.20301427 -0.03782552 23.00317085 -0.04048073 C27.10227526 -0.04438894 31.20136723 -0.05396709 35.30046368 -0.0626936 C45.20139702 -0.08244612 55.10233136 -0.09252387 65.00327948 -0.10142139 C69.66988903 -0.10580732 74.33649746 -0.11117344 79.00310612 -0.11641026 C94.5240995 -0.1334233 110.04509217 -0.14791548 125.56609344 -0.155159 C129.59293716 -0.15706879 133.61978087 -0.15898914 137.64662457 -0.16094494 C139.14784362 -0.16167055 139.14784362 -0.16167055 140.67939033 -0.16241082 C156.87664742 -0.17070363 173.07383047 -0.19602753 189.27105526 -0.22852562 C205.91411493 -0.26164486 222.55713704 -0.27961225 239.20022982 -0.28280324 C248.53903969 -0.28496411 257.87774169 -0.29365046 267.21651936 -0.31926441 C275.17343664 -0.34103817 283.13021985 -0.34898924 291.08716355 -0.33929763 C295.14184384 -0.33477183 299.19624789 -0.33653784 303.25088978 -0.35605907 C334.51329044 -0.49819935 334.51329044 -0.49819935 347.16639996 4.13422108 C348.26897042 4.53274123 349.37154089 4.93126139 350.50752258 5.34185791 C363.40846996 10.24195501 373.51165846 17.49287035 383.16639996 27.13422108 C384.3903648 28.34078358 384.3903648 28.34078358 385.63905621 29.57172108 C401.74502291 46.36833815 408.66337846 68.60338255 408.55408001 91.49721241 C408.55826474 92.88724148 408.56374844 94.27726712 408.57039982 95.66728657 C408.58472411 99.44523527 408.58065102 103.22296341 408.57323301 107.00092351 C408.56847099 111.09172229 408.58103784 115.1824754 408.59125042 119.27325916 C408.60838507 127.27148541 408.6092895 135.26963291 408.60403752 143.26787273 C408.59998438 149.77388453 408.6014529 156.27987319 408.60678577 162.7858839 C408.6075342 163.71437549 408.60828262 164.64286708 408.60905372 165.59949478 C408.61058531 167.48616488 408.61212366 169.37283497 408.61366869 171.25950506 C408.62737459 188.92469092 408.62196963 206.58983241 408.61048348 224.25501724 C408.60055448 240.38637003 408.61348942 256.51760807 408.63741767 272.64894316 C408.66184962 289.24597251 408.6714064 305.84294851 408.66476494 322.43999547 C408.66128164 331.74459686 408.66344577 341.04911006 408.68101597 350.35369778 C408.69578935 358.27488356 408.69630672 366.19591906 408.67894506 374.11710206 C408.67047449 378.15170539 408.66818785 382.18604084 408.68359661 386.22062969 C408.81567309 423.44552993 408.81567309 423.44552993 400.41639996 440.00922108 C400.07495953 440.70773182 399.7335191 441.40624256 399.38173199 442.1259203 C396.27905033 448.28442389 392.51741532 453.78476219 388.16639996 459.13422108 C387.68815777 459.76328358 387.20991558 460.39234608 386.71718121 461.04047108 C373.50596328 477.69644783 351.69724301 487.79338018 331.16639996 491.13422108 C326.37219062 491.51554845 321.61103912 491.54485345 316.80340862 491.52190113 C315.41337956 491.52608586 314.02335391 491.53156956 312.63333446 491.53822094 C308.85538576 491.55254523 305.07765762 491.54847214 301.29969752 491.54105413 C297.20889874 491.53629211 293.11814563 491.54885897 289.02736187 491.55907154 C281.02913562 491.57620619 273.03098813 491.57711063 265.0327483 491.57185864 C258.5267365 491.56780551 252.02074784 491.56927402 245.51473713 491.5746069 C244.12199974 491.57572953 244.12199974 491.57572953 242.70112625 491.57687484 C240.81445615 491.57840643 238.92778606 491.57994478 237.04111598 491.58148981 C219.37593011 491.59519571 201.71078862 491.58979075 184.04560379 491.5783046 C167.914251 491.5683756 151.78301296 491.58131054 135.65167787 491.60523879 C119.05464852 491.62967074 102.45767253 491.63922752 85.86062557 491.63258606 C76.55602418 491.62910276 67.25151097 491.63126689 57.94692326 491.64883709 C50.02573747 491.66361047 42.10470197 491.66412784 34.18351897 491.64676618 C30.14891564 491.63829561 26.11458019 491.63600898 22.07999134 491.65141773 C-15.1205081 491.78341632 -15.1205081 491.78341632 -31.64610004 483.44672108 C-32.6954372 482.93190174 -32.6954372 482.93190174 -33.76597309 482.40668201 C-56.10054359 471.0717275 -71.82163746 451.34354918 -79.95341301 427.90678406 C-83.95808155 413.50736259 -83.39859596 398.77539036 -83.34183967 383.95988762 C-83.33062411 379.87737977 -83.34270694 375.79492665 -83.35168171 371.71242237 C-83.36554376 363.73763825 -83.35811089 355.76301353 -83.34300613 347.78823713 C-83.32606338 338.48570945 -83.32936656 329.18322055 -83.33310021 319.88068219 C-83.33896565 303.27579137 -83.32485773 286.67097662 -83.30015278 270.06610584 C-83.27622428 253.98111592 -83.26915475 237.89622755 -83.27964497 221.81122303 C-83.29107157 204.25917863 -83.29296362 186.70718109 -83.27854687 169.15513724 C-83.27702116 167.28132546 -83.2755008 165.40751368 -83.27398586 163.5337019 C-83.27322805 162.61194561 -83.27247023 161.69018932 -83.27168946 160.74050102 C-83.266961 154.26721439 -83.26878774 147.79394879 -83.27305126 141.3206625 C-83.27799365 133.42655787 -83.2719234 125.53254895 -83.25215697 117.63846616 C-83.24233164 113.6164135 -83.23712803 109.59450612 -83.24504948 105.57244587 C-83.25216895 101.88192158 -83.24515753 98.19168885 -83.22744585 94.50120267 C-83.22156287 92.55289663 -83.23016209 90.6045629 -83.23949236 88.65627033 C-83.06098314 63.53342356 -72.72100889 42.53342734 -55.70860004 24.57172108 C-41.36567586 10.52678008 -20.29774303 0.03583259 0 0 Z " fill="#5066D3" transform="translate(791.8336000442505,708.8657789230347)"/>
<path d="M0 0 C1.10063003 -0.00382555 2.20126006 -0.00765109 3.33524251 -0.01159257 C7.02458928 -0.02191417 10.71378017 -0.01793192 14.40313721 -0.01396179 C17.04786699 -0.01830878 19.69258532 -0.02342744 22.33731079 -0.02944946 C28.77683217 -0.04219364 35.21631184 -0.04399042 41.6558437 -0.0416492 C46.89208056 -0.03986519 52.12830476 -0.04161747 57.3645401 -0.04587364 C58.11018747 -0.04646883 58.85583483 -0.04706402 59.62407757 -0.04767724 C61.13896106 -0.04888902 62.65384454 -0.05010316 64.16872802 -0.05131962 C78.37380003 -0.06219455 92.57884829 -0.06003318 106.78392163 -0.05393478 C119.76806616 -0.04876842 132.7521356 -0.0600137 145.73626527 -0.07903299 C159.07743701 -0.09842497 172.41857326 -0.10666484 185.75975919 -0.10290974 C193.24610187 -0.10099941 200.73238069 -0.10346869 208.21871185 -0.11762428 C214.59365148 -0.12955657 220.96848796 -0.13092251 227.34342906 -0.11883412 C230.59331472 -0.11295766 233.84297358 -0.11344848 237.09285355 -0.12383652 C240.62311137 -0.1343055 244.15286557 -0.12620132 247.68310547 -0.11352539 C248.70044038 -0.12089968 249.71777528 -0.12827396 250.76593852 -0.13587171 C260.70025342 -0.06104152 269.5859992 1.9292851 276.90802002 9.01460266 C284.24858048 16.82924099 285.54381007 24.11102383 285.48320007 34.51957703 C285.49127838 36.19146133 285.49127838 36.19146133 285.49951988 37.89712107 C285.51379621 41.62177892 285.50669627 45.34608121 285.49957275 49.070755 C285.5052765 51.7453422 285.51214044 54.41990411 285.52037048 57.09448242 C285.53753939 63.59925199 285.53840243 70.10392489 285.53315758 76.60871123 C285.52911088 81.8978231 285.53056537 87.18690648 285.53590584 92.476017 C285.53665426 93.22971947 285.53740268 93.98342194 285.53817378 94.75996388 C285.53970531 96.2912753 285.54124366 97.82258671 285.54278875 99.35389812 C285.55650703 113.70444246 285.55108096 128.05493224 285.53960354 142.40547533 C285.52967311 155.52208081 285.5426097 168.63854519 285.56653773 181.75512891 C285.59094514 195.23649307 285.60053249 208.71779157 285.593885 222.19917738 C285.59039626 229.762637 285.59260191 237.32598814 285.61013603 244.889431 C285.62487863 251.32839721 285.62546678 257.76717856 285.60806512 264.20614122 C285.59956924 267.48850167 285.59955003 270.77046532 285.61271667 274.05282021 C285.62592468 277.61813963 285.61437914 281.18256715 285.59672546 284.74784851 C285.60633047 285.77549202 285.61593548 286.80313554 285.62583154 287.86191976 C285.54459139 295.857753 283.73374148 303.09601615 278.84552002 309.57319641 C272.66428892 315.61394499 265.66083037 319.52908484 256.90802002 319.63569641 C248.57741312 319.48508657 240.86395389 317.22197148 234.80623817 311.24088669 C226.07948589 301.13949742 226.25989699 290.38249249 226.41436768 277.81440735 C226.41606287 275.87177585 226.41510477 273.92914051 226.41171265 271.98651123 C226.41000015 266.74531126 226.44512898 261.50494515 226.48715639 256.26393795 C226.52481528 250.7747216 226.52820068 245.28548344 226.53530884 239.79615784 C226.55391324 229.41595428 226.60309056 219.03613257 226.66340578 208.6560967 C226.73060823 196.83263916 226.76349443 185.00916282 226.79357839 173.18556166 C226.85619354 148.87706204 226.96164269 124.56890068 227.09552002 100.26069641 C226.43552002 100.26069641 225.77552002 100.26069641 225.09552002 100.26069641 C224.84094105 100.83996921 224.58636209 101.419242 224.32406861 102.01606852 C222.96106639 104.50635082 221.44298185 106.16624243 219.43874264 108.1747427 C218.6739638 108.94597043 217.90918497 109.71719815 217.12123102 110.51179641 C216.27718715 111.35274308 215.43314329 112.19368974 214.56352234 113.06011963 C213.66978206 113.95839102 212.77604179 114.85666241 211.85521847 115.78215414 C209.37327833 118.27634027 206.8851096 120.76423064 204.39586246 123.2511214 C201.71252048 125.9340556 199.0349108 128.62270046 196.35652161 131.31057739 C191.1070301 136.57668985 185.8519839 141.83722519 180.59473323 147.09559052 C176.32045232 151.37082161 172.04775443 155.64762832 167.77617073 159.92555428 C155.66390531 172.05543694 143.5474507 184.1811127 131.42562377 196.30144029 C130.77198006 196.95500409 130.11833635 197.60856789 129.44488525 198.28193665 C128.7904418 198.93629834 128.13599835 199.59066003 127.46172328 200.26485086 C116.86111804 210.8646436 106.27051836 221.47437077 95.68443441 232.08866423 C84.81326367 242.98857502 73.93464001 253.88099823 63.04822594 264.76568514 C56.93709854 270.87614891 50.82908027 276.98964731 44.72906303 283.11120415 C39.53385933 288.32463461 34.33175648 293.53105768 29.12065195 298.72859638 C26.46336543 301.37936019 23.80936942 304.03320692 21.16404343 306.69591141 C18.29229747 309.58632806 15.40519909 312.46091327 12.5164032 315.33428955 C11.68797439 316.17300549 10.85954557 317.01172143 10.00601286 317.875853 C5.10525457 322.71904645 0.32109921 326.29505991 -5.90447998 329.26069641 C-6.79651123 329.68608704 -7.68854248 330.11147766 -8.60760498 330.54975891 C-15.6421137 332.72710685 -23.33225789 331.95700687 -29.81463623 328.56929016 C-37.92778735 323.48909273 -42.82418252 317.43413702 -45.90447998 308.26069641 C-47.33356039 299.46635544 -45.53137705 292.41842126 -40.45527107 285.19981056 C-35.95268881 279.34809161 -31.03116455 274.10517513 -25.80003357 268.90228271 C-24.90524931 268.00437848 -24.01046506 267.10647424 -23.08856612 266.18136078 C-20.62715795 263.71166763 -18.1596298 261.24817269 -15.69096696 258.78573406 C-13.02143808 256.1207542 -10.3577002 253.44999624 -7.69319153 250.77999878 C-2.48329317 245.56123337 2.73196542 240.34785708 7.94920287 235.13642966 C12.18705996 230.90309627 16.42295249 226.66780639 20.65746117 222.43112373 C21.26096404 221.82731439 21.86446692 221.22350505 22.48625776 220.60139846 C23.71230603 219.37471073 24.93834981 218.14801852 26.16438916 216.92132188 C37.64328661 205.4367299 49.12829187 193.95826175 60.61541434 182.48189742 C70.47823318 172.62802922 80.33577428 162.76890682 90.18951416 152.90596008 C101.63674567 141.44803783 113.08719831 129.99335069 124.54285115 118.54384762 C125.76279086 117.32454501 126.9827264 116.10523822 128.2026577 114.8859272 C129.10300225 113.98604548 129.10300225 113.98604548 130.02153558 113.06798432 C134.2579743 108.83327495 138.49208276 104.59624416 142.72530556 100.35832024 C147.87635975 95.20167121 153.0309329 90.04857162 158.19012413 84.90006315 C160.82376993 82.2716905 163.45575982 79.64171288 166.08347702 77.00741196 C168.92560421 74.15827122 171.77534655 71.3168754 174.62599182 68.47625732 C175.46361803 67.63416967 176.30124424 66.79208202 177.16425306 65.92447656 C177.9232985 65.17064662 178.68234394 64.41681667 179.46439075 63.64014339 C180.12206906 62.98278979 180.77974737 62.32543619 181.45735532 61.64816278 C183.09552002 60.26069641 183.09552002 60.26069641 185.09552002 60.26069641 C185.09552002 59.60069641 185.09552002 58.94069641 185.09552002 58.26069641 C184.09460642 58.26438358 183.09369282 58.26807076 182.0624485 58.27186966 C157.69098854 58.36072764 133.31954963 58.4264278 108.94796181 58.4679451 C97.16196556 58.48855699 85.37607642 58.51665146 73.59014893 58.56245422 C63.31571994 58.60236388 53.04136853 58.62813921 42.76686418 58.63705039 C37.32821889 58.6422581 31.88979553 58.65446976 26.45122147 58.68361664 C21.32782524 58.71085084 16.2047415 58.71912519 11.08127975 58.71312714 C9.20522105 58.71422379 7.32915143 58.72212977 5.45315552 58.73751831 C-6.26072844 58.82885868 -17.25482372 58.79124868 -26.29901123 50.19819641 C-32.44504842 42.78108097 -34.87256234 35.18157814 -34.42791748 25.60054016 C-32.83426917 15.43211252 -26.82891829 9.27949776 -18.84588623 3.37397766 C-12.7437005 -0.12526366 -6.82953646 -0.02515063 0 0 Z " fill="#FDFEFE" transform="translate(834.9044799804688,788.7393035888672)"/>
</svg>
